<?xml version="1.0" standalone="no"?>
<!DOCTYPE svg PUBLIC "-//W3C//DTD SVG 20010904//EN"
 "http://www.w3.org/TR/2001/REC-SVG-20010904/DTD/svg10.dtd">
<svg version="1.0" xmlns="http://www.w3.org/2000/svg"
 width="500.000000pt" height="500.000000pt" viewBox="0 0 500.000000 500.000000"
 preserveAspectRatio="xMidYMid meet">

<g transform="translate(0.000000,500.000000) scale(0.100000,-0.100000)"
fill="#000000" stroke="none">
<path d="M2042 4809 c-52 -11 -155 -40 -230 -64 -140 -46 -386 -160 -414 -192
-8 -10 -29 -56 -47 -103 -18 -47 -37 -94 -43 -104 -6 -11 -14 -32 -18 -47 -8
-25 -1 -23 96 41 251 163 539 273 825 315 157 22 452 20 604 -5 202 -33 369
-85 567 -178 59 -28 110 -47 113 -44 4 4 10 7 13 7 10 0 121 75 127 86 8 12
-92 74 -200 124 -127 60 -265 110 -402 147 l-118 31 -390 3 c-358 3 -398 2
-483 -17z"/>
<path d="M1010 3941 c0 -12 9 -21 25 -25 13 -3 35 -21 49 -39 49 -64 51 -89
51 -712 0 -524 -2 -584 -17 -617 -9 -21 -28 -43 -42 -50 -15 -6 -26 -17 -26
-25 0 -10 29 -13 135 -13 108 0 135 3 135 14 0 7 -14 19 -31 26 -16 7 -41 27
-53 44 -51 68 -50 65 -54 656 -2 329 1 551 6 545 5 -6 127 -205 272 -443 241
-397 264 -433 287 -430 21 3 63 67 278 431 140 236 261 439 269 450 14 20 15
-35 13 -573 -2 -535 -4 -599 -19 -632 -9 -21 -28 -43 -42 -50 -15 -6 -26 -17
-26 -25 0 -10 35 -13 175 -13 185 0 208 6 146 42 -19 10 -34 31 -42 55 -16 50
-25 999 -10 1145 12 120 39 184 88 208 18 8 33 23 33 33 0 15 -12 17 -118 17
l-118 0 -273 -460 c-150 -253 -274 -460 -276 -460 -1 0 -128 207 -281 460
l-279 460 -127 0 c-119 0 -128 -1 -128 -19z"/>
<path d="M392 3259 c-33 -110 -59 -241 -73 -358 -14 -122 -7 -464 11 -558 14
-72 9 -72 104 5 l58 47 3 265 c3 215 7 285 23 370 19 98 19 106 3 120 -32 29
-70 85 -88 134 l-19 48 -22 -73z"/>
<path d="M2615 3130 l0 -60 43 0 c23 0 42 4 42 8 0 4 -16 6 -36 4 l-36 -4 4
56 c2 33 -1 56 -7 56 -6 0 -10 -27 -10 -60z"/>
<path d="M2888 3130 c-2 -48 0 -60 12 -60 11 0 15 11 15 37 0 27 4 38 15 38
11 0 15 -11 15 -38 0 -20 5 -37 11 -37 6 0 8 15 5 43 -5 35 -10 42 -29 41 -15
0 -22 5 -22 18 0 10 -4 18 -9 18 -5 0 -11 -27 -13 -60z"/>
<path d="M3045 3130 l0 -60 36 0 c42 0 69 24 69 62 0 34 -29 58 -71 58 l-34 0
0 -60z m73 38 c7 -7 12 -24 12 -38 0 -30 -17 -50 -42 -50 -15 0 -18 9 -18 50
0 41 3 50 18 50 10 0 23 -5 30 -12z"/>
<path d="M3345 3180 c-3 -5 -1 -10 4 -10 6 0 11 5 11 10 0 6 -2 10 -4 10 -3 0
-8 -4 -11 -10z"/>
<path d="M2719 3143 c-11 -15 -11 -16 1 -5 19 16 40 15 40 -2 0 -8 -12 -17
-26 -20 -39 -10 -28 -40 17 -44 35 -3 36 -2 31 30 -8 57 -37 75 -63 41z m45
-48 c-7 -16 -30 -20 -38 -6 -7 11 4 21 25 21 12 0 16 -5 13 -15z"/>
<path d="M2813 3153 c-21 -8 -15 -33 12 -45 14 -6 25 -16 25 -21 0 -5 -11 -7
-25 -5 -14 3 -25 1 -25 -3 0 -5 14 -9 30 -9 23 0 30 5 30 19 0 11 -9 23 -20
26 -11 3 -20 13 -20 21 0 17 12 18 28 2 8 -8 12 -8 12 -1 0 9 -26 26 -33 22
-1 0 -8 -3 -14 -6z"/>
<path d="M3175 3136 c-22 -34 -5 -66 33 -65 27 1 27 1 3 8 -37 10 -38 31 -2
31 32 0 41 16 19 38 -18 18 -36 14 -53 -12z m45 -1 c11 -13 8 -15 -14 -15 -25
0 -33 10 -19 23 10 11 19 8 33 -8z"/>
<path d="M3263 3143 c-4 -11 1 -22 15 -31 29 -19 28 -35 -3 -30 -13 3 -22 1
-19 -3 8 -13 52 -11 60 3 4 6 -4 21 -20 33 -19 15 -24 25 -17 30 7 4 20 1 29
-7 15 -12 16 -11 3 5 -17 22 -40 22 -48 0z"/>
<path d="M3345 3115 c0 -25 5 -45 10 -45 6 0 9 19 7 45 -5 58 -18 58 -17 0z"/>
<path d="M3396 3144 c-32 -32 -8 -82 35 -71 15 4 19 1 17 -11 -2 -11 -13 -17
-30 -17 -15 1 -24 -3 -22 -7 8 -12 38 -10 52 4 18 18 15 105 -4 112 -24 9 -31
8 -48 -10z m49 -29 c0 -23 -5 -31 -22 -33 -19 -3 -23 1 -23 26 0 33 8 44 30
40 9 -2 15 -14 15 -33z"/>
<path d="M3485 3114 c0 -25 5 -44 11 -44 6 0 9 12 6 28 -2 17 2 33 12 41 23
19 38 3 34 -35 -2 -20 0 -34 7 -34 11 0 8 79 -4 81 -3 1 -19 2 -36 4 -29 2
-30 1 -30 -41z"/>
<path d="M3595 3136 c-22 -34 -5 -66 33 -65 27 1 27 1 3 8 -37 10 -38 31 -2
31 32 0 41 16 19 38 -18 18 -36 14 -53 -12z m45 -1 c11 -13 8 -15 -14 -15 -25
0 -33 10 -19 23 10 11 19 8 33 -8z"/>
<path d="M3685 3115 c0 -25 5 -45 11 -45 6 0 9 12 6 30 -3 21 0 32 12 36 9 3
16 11 16 16 0 6 -6 5 -15 -2 -10 -9 -15 -9 -15 -1 0 6 -3 11 -8 11 -4 0 -7
-20 -7 -45z"/>
<path d="M4581 3084 c-96 -58 -94 -55 -82 -179 14 -134 14 -359 1 -484 -6 -52
-8 -96 -6 -99 9 -9 157 81 173 105 38 57 24 509 -19 649 l-13 41 -54 -33z"/>
<path d="M2680 2877 c0 -8 11 -20 25 -27 51 -28 59 -64 63 -322 l4 -238 108 0
107 0 6 233 c6 252 12 286 61 324 50 40 37 43 -174 43 -160 0 -200 -3 -200
-13z"/>
<path d="M960 2173 c14 -10 33 -27 42 -38 15 -18 17 -18 18 -2 0 24 -36 57
-62 57 -22 0 -22 0 2 -17z"/>
<path d="M1050 2180 c0 -12 8 -12 35 0 18 8 17 9 -7 9 -16 1 -28 -3 -28 -9z"/>
<path d="M1140 2050 c0 -133 1 -140 20 -140 19 0 20 7 20 140 0 133 -1 140
-20 140 -19 0 -20 -7 -20 -140z"/>
<path d="M1230 2183 c8 -3 21 -10 28 -16 8 -7 12 -5 12 7 0 11 -8 16 -27 15
-16 0 -22 -3 -13 -6z"/>
<path d="M1300 2090 c0 -55 5 -111 12 -125 13 -28 55 -55 85 -55 12 1 7 5 -12
14 -44 19 -55 53 -55 166 0 82 -3 100 -15 100 -12 0 -15 -18 -15 -100z"/>
<path d="M1497 2158 c8 -46 13 -48 13 -5 0 21 -4 37 -10 37 -5 0 -7 -14 -3
-32z"/>
<path d="M1540 2050 c0 -127 2 -140 18 -140 15 0 17 12 14 140 -2 114 -6 140
-18 140 -11 0 -14 -24 -14 -140z"/>
<path d="M1684 2169 c70 -55 76 -157 13 -226 -24 -27 -11 -30 18 -5 79 67 72
192 -14 237 -42 21 -49 19 -17 -6z"/>
<path d="M1800 2050 c0 -118 2 -140 15 -140 13 0 15 22 15 140 0 118 -2 140
-15 140 -13 0 -15 -22 -15 -140z"/>
<path d="M2025 2180 c78 -32 110 -151 60 -224 -24 -35 -24 -36 -4 -22 57 39
75 115 43 182 -17 36 -69 74 -100 73 -18 0 -18 -1 1 -9z"/>
<path d="M2306 2133 c14 -32 42 -96 62 -143 34 -78 37 -82 40 -52 5 47 -85
252 -110 252 -16 0 -16 -5 8 -57z"/>
<path d="M2490 2050 c0 -118 2 -140 15 -140 13 0 15 22 15 140 0 118 -2 140
-15 140 -13 0 -15 -22 -15 -140z"/>
<path d="M2647 2175 c-4 -8 17 -71 45 -140 40 -94 57 -125 70 -125 17 0 17 3
5 33 -109 257 -110 259 -120 232z"/>
<path d="M2810 2050 c0 -118 2 -140 15 -140 13 0 15 22 15 140 0 118 -2 140
-15 140 -13 0 -15 -22 -15 -140z"/>
<path d="M3005 2179 c11 -6 30 -23 42 -38 22 -25 23 -25 23 -4 0 25 -35 53
-65 53 -20 -1 -20 -1 0 -11z"/>
<path d="M3210 2050 c0 -127 2 -140 18 -140 15 0 17 12 14 140 -2 114 -6 140
-18 140 -11 0 -14 -24 -14 -140z"/>
<path d="M3410 2050 c0 -118 2 -140 15 -140 13 0 15 22 15 140 0 118 -2 140
-15 140 -13 0 -15 -22 -15 -140z"/>
<path d="M3470 2050 c0 -118 2 -140 15 -140 13 0 15 22 15 140 0 118 -2 140
-15 140 -13 0 -15 -22 -15 -140z"/>
<path d="M3640 2050 c0 -118 2 -140 15 -140 13 0 15 22 15 140 0 118 -2 140
-15 140 -13 0 -15 -22 -15 -140z"/>
<path d="M3700 2050 c0 -118 2 -140 15 -140 13 0 15 22 15 140 0 118 -2 140
-15 140 -13 0 -15 -22 -15 -140z"/>
<path d="M3836 2171 c32 -19 64 -82 64 -124 -1 -32 -35 -103 -57 -116 -10 -6
-13 -11 -6 -11 22 0 72 51 83 86 22 65 -8 137 -70 169 -41 21 -51 18 -14 -4z"/>
<path d="M4052 2174 c-8 -14 -5 -29 12 -64 13 -25 36 -78 52 -119 26 -66 46
-92 60 -78 4 4 -84 226 -106 266 -6 11 -9 10 -18 -5z"/>
<path d="M1901 2150 c-55 -55 -54 -144 2 -198 18 -17 48 -34 67 -38 l35 -6
-34 19 c-75 40 -102 156 -52 224 28 38 20 37 -18 -1z"/>
<path d="M835 2140 c-10 -31 20 -68 81 -102 55 -30 98 -74 88 -90 -4 -7 -2 -8
4 -4 17 10 15 48 -3 73 -9 12 -43 37 -77 55 -42 22 -65 41 -73 62 -12 29 -13
29 -20 6z"/>
<path d="M2891 2128 c-1 -41 23 -65 106 -107 23 -12 49 -33 57 -49 l15 -27 1
31 c0 35 -24 61 -85 92 -41 21 -78 55 -88 82 -3 8 -6 -2 -6 -22z"/>
<path d="M810 1995 c0 -11 4 -25 8 -31 12 -19 76 -54 97 -54 15 1 12 4 -11 14
-17 8 -45 31 -62 52 -25 31 -32 34 -32 19z"/>
<path d="M2872 1986 c4 -35 39 -64 88 -71 32 -5 33 -4 7 4 -36 12 -55 28 -79
66 l-19 30 3 -29z"/>
<path d="M3366 1945 c-3 -8 -16 -20 -28 -25 -22 -9 -22 -9 4 -9 19 -1 29 5 33
20 8 24 0 37 -9 14z"/>
<path d="M2768 1668 c-6 -146 -20 -196 -62 -223 -14 -10 -26 -24 -26 -31 0
-12 82 -14 509 -14 l508 0 7 77 c15 182 2 239 -37 158 -25 -52 -95 -124 -147
-150 -66 -33 -144 -45 -306 -45 -215 0 -217 1 -222 213 l-4 147 -108 0 -107 0
-5 -132z"/>
<path d="M886 1698 c-20 -28 -20 -48 0 -76 15 -22 67 -31 78 -13 3 4 -6 6 -19
3 -14 -2 -32 1 -40 8 -18 15 -20 61 -3 78 15 15 54 16 61 2 3 -6 4 -5 3 2 -1
7 -16 14 -33 16 -23 2 -35 -3 -47 -20z"/>
<path d="M1045 1660 c0 -33 4 -60 10 -60 6 0 9 24 7 60 -5 78 -17 78 -17 0z"/>
<path d="M1095 1710 c-3 -5 -1 -10 4 -10 6 0 11 5 11 10 0 6 -2 10 -4 10 -3 0
-8 -4 -11 -10z"/>
<path d="M1678 1660 c4 -59 4 -60 33 -60 44 0 62 57 25 82 -19 13 -30 8 -12
-5 26 -19 18 -61 -12 -65 -21 -3 -23 0 -22 30 3 52 1 78 -7 78 -5 0 -6 -27 -5
-60z"/>
<path d="M2225 1660 c0 -33 4 -60 10 -60 6 0 9 24 7 60 -5 78 -17 78 -17 0z"/>
<path d="M2275 1660 c0 -35 4 -60 10 -60 7 0 9 14 7 34 -3 25 1 35 14 40 22 9
36 -11 31 -46 -2 -17 1 -28 8 -28 14 0 8 58 -8 78 -5 7 -18 10 -28 7 -14 -5
-19 -1 -19 14 0 12 -3 21 -7 21 -5 0 -8 -27 -8 -60z"/>
<path d="M4438 1693 c-7 -10 -19 -19 -25 -20 -12 -3 -129 -78 -168 -109 -11
-8 -24 -15 -28 -14 -14 2 -60 -40 -91 -83 -17 -23 -33 -44 -36 -47 -3 -3 -27
-31 -54 -64 -27 -32 -73 -83 -102 -114 -29 -30 -51 -59 -48 -64 4 -5 15 0 25
11 11 12 24 21 29 21 5 0 22 11 37 25 46 41 51 44 55 39 3 -2 13 5 23 16 10
11 26 20 37 20 10 0 18 4 18 8 0 5 10 14 23 20 12 7 40 23 62 37 22 14 59 35
82 47 33 17 52 40 103 124 34 56 63 111 63 121 1 10 9 23 17 30 10 8 11 12 3
13 -6 0 -18 -8 -25 -17z"/>
<path d="M999 1648 c-3 -30 0 -48 6 -48 7 0 9 15 7 38 -6 58 -9 61 -13 10z"/>
<path d="M1095 1644 c0 -24 5 -44 10 -44 11 0 8 77 -4 84 -3 3 -6 -15 -6 -40z"/>
<path d="M1145 1666 c-23 -34 -5 -68 33 -64 21 2 28 9 30 31 6 54 -36 75 -63
33z m43 5 c21 -13 11 -56 -13 -56 -20 0 -31 25 -21 51 6 16 15 17 34 5z"/>
<path d="M1243 1683 c-21 -8 -15 -33 12 -45 14 -6 25 -16 25 -21 0 -5 -11 -7
-25 -5 -14 3 -25 1 -25 -3 0 -13 48 -11 56 3 4 6 -4 21 -20 33 -19 15 -24 25
-17 30 7 4 18 1 26 -5 9 -7 15 -8 15 -2 0 8 -26 25 -33 21 -1 0 -8 -3 -14 -6z"/>
<path d="M1376 1677 c-12 -9 -17 -23 -14 -42 2 -25 8 -30 33 -32 27 -2 28 -1
6 5 -37 11 -38 32 -2 32 32 0 41 16 19 38 -15 15 -20 15 -42 -1z m42 -15 c2
-7 -7 -12 -23 -12 -24 0 -26 2 -15 15 14 17 31 16 38 -3z"/>
<path d="M1513 1683 c-21 -8 -15 -33 12 -45 14 -6 25 -16 25 -21 0 -5 -11 -7
-25 -5 -14 3 -25 1 -25 -3 0 -13 48 -11 56 3 4 6 -4 21 -20 33 -19 15 -24 25
-17 30 7 4 18 1 26 -5 9 -7 15 -8 15 -2 0 8 -26 25 -33 21 -1 0 -8 -3 -14 -6z"/>
<path d="M1585 1666 c-23 -34 -5 -68 33 -64 21 2 28 9 30 31 6 54 -36 75 -63
33z m43 5 c21 -13 11 -56 -13 -56 -20 0 -31 25 -21 51 6 16 15 17 34 5z"/>
<path d="M1778 1643 c-2 -30 1 -43 9 -43 8 0 13 14 13 35 0 24 5 35 15 35 8 0
15 3 15 8 0 4 -11 7 -24 7 -21 0 -25 -5 -28 -42z"/>
<path d="M1886 1673 c16 -16 15 -18 -15 -26 -46 -11 -39 -41 10 -43 34 -2 35
-1 31 30 -5 33 -18 56 -34 56 -5 0 -2 -8 8 -17z m8 -48 c-7 -16 -30 -20 -38
-6 -7 11 4 21 25 21 12 0 16 -5 13 -15z"/>
<path d="M1940 1645 c0 -29 4 -45 13 -45 7 0 12 15 12 40 0 23 -5 42 -12 45
-9 3 -13 -9 -13 -40z"/>
<path d="M1990 1675 c7 -8 10 -28 8 -45 -4 -23 -1 -30 12 -30 13 0 16 7 12 33
-5 34 -18 57 -34 57 -6 0 -5 -7 2 -15z"/>
<path d="M2058 1679 c-22 -12 -23 -52 -4 -69 8 -6 25 -10 38 -7 21 4 21 4 -4
6 -33 1 -48 36 -25 59 13 13 19 13 31 2 9 -7 16 -8 16 -2 0 5 -7 13 -16 16
-19 7 -15 8 -36 -5z"/>
<path d="M2135 1666 c-22 -34 -5 -66 33 -65 27 1 27 1 3 8 -37 10 -38 31 -2
31 32 0 41 16 19 38 -18 18 -36 14 -53 -12z m45 -1 c11 -13 8 -15 -14 -15 -25
0 -33 10 -19 23 10 11 19 8 33 -8z"/>
<path d="M2393 1683 c-7 -2 -13 -9 -13 -15 0 -6 6 -6 15 2 8 6 19 9 25 5 17
-11 11 -23 -12 -27 -15 -2 -24 -11 -26 -25 -3 -20 1 -22 30 -21 32 1 33 2 30
37 -5 44 -19 57 -49 44z m37 -53 c0 -12 -28 -25 -36 -17 -9 9 6 27 22 27 8 0
14 -5 14 -10z"/>
<path d="M2473 1673 c-4 -11 1 -22 15 -31 29 -19 28 -35 -3 -30 -13 3 -22 1
-19 -3 8 -13 52 -11 60 3 4 6 -4 21 -20 33 -19 15 -24 25 -17 30 7 4 20 1 29
-7 15 -12 16 -11 3 5 -17 22 -40 22 -48 0z"/>
<path d="M769 1543 c-52 -43 -89 -83 -89 -95 0 -6 21 -40 47 -76 173 -243 425
-469 676 -607 l68 -37 53 36 c29 20 62 46 74 59 l22 23 -73 39 c-249 134 -490
344 -669 583 l-76 102 -33 -27z"/>
<path d="M3834 1144 c-18 -14 -18 -15 4 -4 12 6 22 13 22 15 0 8 -5 6 -26 -11z"/>
<path d="M3350 832 c-204 -101 -478 -166 -792 -188 -49 -3 -88 -10 -88 -16 0
-6 -13 -8 -33 -4 -30 6 -44 -1 -115 -51 -45 -32 -82 -61 -82 -65 0 -5 137 -8
304 -8 279 0 305 1 327 18 13 10 94 61 179 112 165 100 213 131 245 156 11 8
37 24 58 35 20 11 37 22 37 24 0 7 0 7 -40 -13z"/>
</g>
</svg>
